<svg xmlns="http://www.w3.org/2000/svg" width="200" height="67" viewBox="0 0 300 67">
<defs>
<style>.a{fill:#1a1818;}.a,.b,.c,.d,.e,.f,.g,.h,.i,.j,.k,.l,.m,.n,.o,.p,.q{fill-rule:evenodd;}.b{fill:#32b3ad;}.c{fill:#29badc;}.d{fill:#0096d8;}.e{fill:#f1a00c;}.f{fill:#183183;}.g{fill:#eb6318;}.h{fill:#dc0b33;}.i{fill:#d60d22;}.j{fill:#9a1979;}.k{fill:#c7006d;}.l{fill:#512981;}.m{fill:#073282;}.n{fill:#00408c;}.o{fill:#3e2b82;}.p{fill:#0d2e77;}.q{fill:#fff;}</style></defs>
<!-- <g transform="translate(198.504 -38.252)"><path class="a" d="M8.867,66.541H5.086V54.056H1.515V51H12.462v3.059H8.867Z" transform="translate(0 -3.018)"/><path class="a" d="M71.016,65.23a8.091,8.091,0,1,1,.022-16.173,7.9,7.9,0,0,1,8.123,8.005,8.053,8.053,0,0,1-8.145,8.168m-.069-12.65a4.591,4.591,0,1,0,4.387,4.576,4.406,4.406,0,0,0-4.387-4.576" transform="translate(-50.923 -1.403)"/><path class="a" d="M8.867,168.533H5.086V156.047H1.515v-3.06H12.462v3.06H8.867Z" transform="translate(0 -88.108)"/><path class="a" d="M76.63,168.533H72.848V152.987H76.63v6.352h5.112v-6.352h3.781v15.546H81.742v-6.138H76.63Z" transform="translate(-59.386 -88.108)"/><path class="a" d="M160.222,159.221h5.132v3.059h-5.108v3.2h5.108v3.056h-8.89V152.987h8.89v3.06h-5.132Z" transform="translate(-128.997 -88.108)"/><path class="a" d="M14.066,270.548H10.284V255.008h3.783l5.67,8.748v-8.748h3.782v15.541H19.736l-5.67-8.843Z" transform="translate(-7.3 -173.226)"/><path class="a" d="M101.01,261.219h5.133v3.06h-5.11v3.2h5.11v3.056H97.253V254.987h8.889v3.054H101.01Z" transform="translate(-79.704 -173.209)"/><path class="a" d="M172.317,254.987h3.969l-4.156,15.544h-3.92l-1.985-9.194-1.983,9.194h-3.9l-4.013-15.544h4.013l1.985,8.825,2.076-8.825h3.805l2.008,9.033Z" transform="translate(-128.887 -173.209)"/><path class="a" d="M260.284,336.841v.186h.555v1.649h.2v-1.649h.558v-.186Z" transform="translate(-215.43 -241.354)"/><path class="a" d="M271.207,336.841l-.694,1.548-.693-1.548h-.24v1.835h.2v-1.45h.007l.658,1.45h.134l.658-1.464h0v1.464h.207v-1.835Z" transform="translate(-223.168 -241.354)"/><path class="b" d="M355.774,283.271l-3.148,7.97-9.668-12.35Z" transform="translate(-284.257 -193.109)"/><path class="c" d="M403.83,305.044l-3.148,7.97,21.376-1.731Z" transform="translate(-332.314 -214.882)"/><path class="d" d="M354.8,164.628l-11.837,19.137L374,194.38Z" transform="translate(-284.261 -97.983)"/><path class="e" d="M336.2,215.664l-6.55,10.589-2.677-8.866Z" transform="translate(-270.952 -140.361)"/><path class="f" d="M413.64,68.931l12.011-19.252L424.4,85.6Z" transform="translate(-343.102 -1.921)"/><path class="g" d="M332.153,161.341l-5.463-11.785.05,12.8Z" transform="translate(-270.714 -85.233)"/><path class="h" d="M335.957,132.149l-9.277-11.072,19.715-5.729Z" transform="translate(-270.706 -56.713)"/><path class="i" d="M330.375,161.652l-3.7-12.1,9.277,11.072Z" transform="translate(-270.706 -85.231)"/><path class="j" d="M333.837,79.8,326.66,91.485l12.4-3.6Z" transform="translate(-270.689 -27)"/><path class="k" d="M369.512,52.8l11.075-5.432-5.855,13.512Z" transform="translate(-306.364 0)"/><path class="l" d="M408,58.763l-1.465-11.381-5.857,13.509Z" transform="translate(-332.309 -0.009)"/><path class="j" d="M437.114,58.763l-1.465-11.381,8.325.385Z" transform="translate(-361.425 -0.009)"/><path class="k" d="M481.218,69.525l.693-19.835,4.744,15.453Z" transform="translate(-399.362 -1.93)"/><path class="j" d="M495.094,61.09l-9.731-11.421,4.742,15.458Z" transform="translate(-402.812 -1.913)"/><path class="j" d="M488.272,175.725l-9.83-7.605-.563,16.083Z" transform="translate(-396.582 -100.736)"/><path class="f" d="M496.064,137.75l-14.846-11.481,10.425-8.419Z" transform="translate(-399.362 -58.813)"/><path class="l" d="M545.942,129l6.735-3.361-9.211-7.781Z" transform="translate(-451.184 -58.791)"/><path class="m" d="M558.251,167.683l6.735-3.361-4.792,12.117Z" transform="translate(-463.493 -97.547)"/><path class="n" d="M584.877,180.124l.031-15.8-2.731,6.9Z" transform="translate(-483.411 -97.566)"/><path class="o" d="M495.338,205.453l-2.062,5.228L488.26,206.8l-10.391,8.479,20.17-.918Z" transform="translate(-396.573 -131.84)"/><path class="n" d="M496.655,264.2l1.392-5.541-20.168.918Z" transform="translate(-396.582 -176.188)"/><path class="p" d="M496.655,268.77l-10.33,8.462-8.447-13.085Z" transform="translate(-396.582 -180.835)"/></g> -->
<g transform="translate(-4927.6 -2456.98)"><path class="q" d="M4937.3,2488.522h-4.99v-16.479H4927.6v-4.035h14.448v4.038H4937.3Z" transform="translate(0 -10.224)"/><path class="q" d="M5123.938,2483.36a10.679,10.679,0,0,1-.661-21.349q.345-.01.69,0a10.429,10.429,0,0,1,10.719,10.13c0,.146.005.291,0,.437a10.63,10.63,0,0,1-10.477,10.781c-.091,0-.183,0-.273,0m-.091-16.7a6.061,6.061,0,1,0,5.78,6.328c0-.1.006-.192.006-.288a5.816,5.816,0,0,0-5.587-6.036q-.1,0-.2,0" transform="translate(-171.817 -4.66)"/><path class="q" d="M4937.3,2794.463h-4.99v-16.481H4927.6v-4.038h14.448v4.038H4937.3Z" transform="translate(0 -293.856)"/><path class="q" d="M5148.9,2794.463H5143.9v-20.519h4.993v8.384h6.748v-8.384h4.99v20.519h-4.992v-8.1H5148.9Z" transform="translate(-200.533 -293.856)"/><path class="q" d="M5402.4,2782.172h6.774v4.038h-6.743v4.219h6.743v4.034h-11.735v-20.519h11.735v4.038H5402.4Z" transform="translate(-435.588 -293.856)"/><path class="q" d="M4959.186,3100.5H4954.2v-20.512h4.991l7.483,11.546v-11.546h4.992V3100.5h-4.989l-7.484-11.674Z" transform="translate(-24.656 -577.591)"/><path class="q" d="M5222.857,3088.147h6.775v4.038h-6.746v4.219h6.746v4.036H5217.9v-20.519h11.733v4.032h-6.775Z" transform="translate(-269.134 -577.526)"/><path class="q" d="M5418.152,3079.921h5.238l-5.482,20.518h-5.177l-2.616-12.135-2.622,12.137h-5.146l-5.3-20.517h5.3l2.62,11.648,2.741-11.648h5.022l2.651,11.924Z" transform="translate(-435.226 -577.526)"/><path class="q" d="M5712.26,3328.112v.246h.733v2.176h.271v-2.176H5714v-.246Z" transform="translate(-727.455 -807.623)"/><path class="q" d="M5742.727,3328.112l-.914,2.042-.914-2.042h-.317v2.422h.267v-1.915h.009l.869,1.915h.177l.869-1.929h.005v1.929h.273v-2.422Z" transform="translate(-753.713 -807.623)"/><path class="b" d="M5979.874,3158.179l-4.155,10.519-12.761-16.3Z" transform="translate(-959.876 -644.719)"/><path class="c" d="M6142.145,3231.712l-4.156,10.519,28.215-2.284Z" transform="translate(-1122.147 -718.251)"/><path class="d" d="M5978.6,2805.928l-15.624,25.26,40.974,14.009Z" transform="translate(-959.889 -323.508)"/><path class="e" d="M5926.68,2962.691l-8.646,13.978-3.534-11.7Z" transform="translate(-914.951 -468.843)"/><path class="f" d="M6177.284,2489.381l15.853-25.411-1.652,47.407Z" transform="translate(-1158.577 -6.48)"/><path class="g" d="M5920.886,2779.431l-7.208-15.555.066,16.892Z" transform="translate(-914.19 -284.522)"/><path class="h" d="M5925.84,2683.12l-12.245-14.612,26.023-7.562Z" transform="translate(-914.112 -189.096)"/><path class="i" d="M5918.523,2779.9l-4.872-15.966,12.244,14.618Z" transform="translate(-914.164 -284.574)"/><path class="j" d="M5923.013,2555.273l-9.474,15.42,16.364-4.751Z" transform="translate(-914.06 -91.127)"/><path class="k" d="M6043.482,2464.149l14.618-7.169-7.728,17.835Z" transform="translate(-1034.53)"/><path class="l" d="M6147.747,2472l-1.929-15.024-7.731,17.831Z" transform="translate(-1122.238)"/><path class="j" d="M6246.023,2472l-1.929-15.024,10.988.508Z" transform="translate(-1220.517)"/><path class="k" d="M6382.2,2490.193l.913-26.181,6.263,20.4Z" transform="translate(-1348.551 -6.519)"/><path class="j" d="M6407.616,2479.017l-12.845-15.075,6.259,20.4Z" transform="translate(-1360.209 -6.454)"/><path class="j" d="M6385.793,2829.349l-12.976-10.039-.743,21.228Z" transform="translate(-1339.167 -335.915)"/><path class="f" d="M6401.845,2694.454l-19.592-15.154,13.761-11.113Z" transform="translate(-1348.603 -195.809)"/><path class="l" d="M6574.227,2683.465l8.89-4.435-12.158-10.272Z" transform="translate(-1523.551 -196.339)"/><path class="m" d="M6615.781,2812.73l8.89-4.435-6.326,15.994Z" transform="translate(-1565.106 -325.703)"/><path class="n" d="M6691.893,2828.791l.041-20.858-3.606,9.1Z" transform="translate(-1632.363 -325.367)"/><path class="o" d="M6395.106,2932.084l-2.723,6.9-6.621-5.117-13.716,11.192,26.623-1.212Z" transform="translate(-1339.141 -440.467)"/><path class="n" d="M6396.858,3099.915l1.837-7.309-26.621,1.212Z" transform="translate(-1339.167 -589.287)"/><path class="p" d="M6396.858,3113.763l-13.635,11.167-11.149-17.271Z" transform="translate(-1339.167 -603.242)"/></g>
</svg>